999
"DXF R12 Output" (www.mydxf.blogspot.com)
 0 
SECTION
 2 
HEADER
 9 
$ACADVER
 1 
AC1009
 9 
$EXTMIN
 10 
 0 
 20 
 0 
 9 
$EXTMAX
 10 
 8.5 
 20 
 11 
 0 
ENDSEC
 0 
SECTION
 2 
ENTITIES
0
LINE
8
Layer 1
10
0.793749
20
371.395749
11
-0.793749
21
369.808251
0
LINE
8
Layer 1
10
0.000000
20
371.924915
11
0.000000
21
369.279085
0
LINE
8
Layer 1
10
2.116664
20
369.543668
11
1.058332
21
368.485336
0
LINE
8
Layer 1
10
1.587498
20
370.072834
11
0.529166
21
369.014502
0
LINE
8
Layer 1
10
1.058332
20
370.602000
11
0.000000
21
369.543668
0
LINE
8
Layer 1
10
0.793749
20
422.568747
11
-0.793749
21
420.981249
0
LINE
8
Layer 1
10
0.000000
20
423.097913
11
0.000000
21
420.452083
0
LINE
8
Layer 1
10
2.116661
20
420.716666
11
1.058332
21
419.658334
0
LINE
8
Layer 1
10
1.587495
20
421.245832
11
0.529166
21
420.187500
0
LINE
8
Layer 1
10
1.058332
20
421.774998
11
0.000000
21
420.716666
0
LINE
8
Layer 1
10
123.854477
20
188.369930
11
124.757499
21
188.190542
0
LINE
8
Layer 1
10
124.757499
20
188.190542
11
125.522673
21
187.679103
0
LINE
8
Layer 1
10
125.522673
20
187.679103
11
126.034112
21
186.913665
0
LINE
8
Layer 1
10
126.034112
20
186.913665
11
126.213764
21
186.010908
0
LINE
8
Layer 1
10
126.213764
20
186.010908
11
126.028291
21
185.092805
0
LINE
8
Layer 1
10
126.028291
20
185.092805
11
125.522673
21
184.342976
0
LINE
8
Layer 1
10
125.522673
20
184.342976
11
124.772845
21
183.837623
0
LINE
8
Layer 1
10
124.772845
20
183.837623
11
123.854477
21
183.652150
0
LINE
8
Layer 1
10
123.854477
20
183.652150
11
122.936110
21
183.837623
0
LINE
8
Layer 1
10
122.936110
20
183.837623
11
122.186281
21
184.342976
0
LINE
8
Layer 1
10
122.186281
20
184.342976
11
121.680663
21
185.092805
0
LINE
8
Layer 1
10
121.680663
20
185.092805
11
121.495191
21
186.011172
0
LINE
8
Layer 1
10
121.495191
20
186.011172
11
121.680663
21
186.929275
0
LINE
8
Layer 1
10
121.680663
20
186.929275
11
122.186281
21
187.679103
0
LINE
8
Layer 1
10
122.186281
20
187.679103
11
122.936110
21
188.184721
0
LINE
8
Layer 1
10
122.936110
20
188.184721
11
123.854477
21
188.369930
0
LINE
8
Layer 1
10
123.854477
20
188.369930
11
123.854477
21
188.369930
0
LINE
8
Layer 1
10
63.854990
20
188.369930
11
64.757748
21
188.190542
0
LINE
8
Layer 1
10
64.757748
20
188.190542
11
65.523186
21
187.679103
0
LINE
8
Layer 1
10
65.523186
20
187.679103
11
66.034625
21
186.913665
0
LINE
8
Layer 1
10
66.034625
20
186.913665
11
66.214277
21
186.010908
0
LINE
8
Layer 1
10
66.214277
20
186.010908
11
66.028804
21
185.092805
0
LINE
8
Layer 1
10
66.028804
20
185.092805
11
65.523186
21
184.342976
0
LINE
8
Layer 1
10
65.523186
20
184.342976
11
64.773093
21
183.837623
0
LINE
8
Layer 1
10
64.773093
20
183.837623
11
63.854990
21
183.652150
0
LINE
8
Layer 1
10
63.854990
20
183.652150
11
62.936623
21
183.837623
0
LINE
8
Layer 1
10
62.936623
20
183.837623
11
62.186530
21
184.342976
0
LINE
8
Layer 1
10
62.186530
20
184.342976
11
61.680912
21
185.092805
0
LINE
8
Layer 1
10
61.680912
20
185.092805
11
61.495704
21
186.011172
0
LINE
8
Layer 1
10
61.495704
20
186.011172
11
61.680912
21
186.929275
0
LINE
8
Layer 1
10
61.680912
20
186.929275
11
62.186530
21
187.679103
0
LINE
8
Layer 1
10
62.186530
20
187.679103
11
62.936623
21
188.184721
0
LINE
8
Layer 1
10
62.936623
20
188.184721
11
63.854990
21
188.369930
0
LINE
8
Layer 1
10
63.854990
20
188.369930
11
63.854990
21
188.369930
0
LINE
8
Layer 1
10
123.854477
20
260.370901
11
124.757499
21
260.190985
0
LINE
8
Layer 1
10
124.757499
20
260.190985
11
125.522673
21
259.677694
0
LINE
8
Layer 1
10
125.522673
20
259.677694
11
126.034112
21
258.913049
0
LINE
8
Layer 1
10
126.034112
20
258.913049
11
126.213764
21
258.010821
0
LINE
8
Layer 1
10
126.213764
20
258.010821
11
126.028291
21
257.092718
0
LINE
8
Layer 1
10
126.028291
20
257.092718
11
125.522673
21
256.343948
0
LINE
8
Layer 1
10
125.522673
20
256.343948
11
124.772845
21
255.838595
0
LINE
8
Layer 1
10
124.772845
20
255.838595
11
123.854477
21
255.650741
0
LINE
8
Layer 1
10
123.854477
20
255.650741
11
122.936110
21
255.838595
0
LINE
8
Layer 1
10
122.936110
20
255.838595
11
122.186281
21
256.343948
0
LINE
8
Layer 1
10
122.186281
20
256.343948
11
121.680663
21
257.092718
0
LINE
8
Layer 1
10
121.680663
20
257.092718
11
121.495191
21
258.010821
0
LINE
8
Layer 1
10
121.495191
20
258.010821
11
121.680663
21
258.928924
0
LINE
8
Layer 1
10
121.680663
20
258.928924
11
122.186281
21
259.677694
0
LINE
8
Layer 1
10
122.186281
20
259.677694
11
122.936110
21
260.185693
0
LINE
8
Layer 1
10
122.936110
20
260.185693
11
123.854477
21
260.370901
0
LINE
8
Layer 1
10
123.854477
20
260.370901
11
123.854477
21
260.370901
0
LINE
8
Layer 1
10
63.854990
20
260.370901
11
64.757748
21
260.190985
0
LINE
8
Layer 1
10
64.757748
20
260.190985
11
65.523186
21
259.677694
0
LINE
8
Layer 1
10
65.523186
20
259.677694
11
66.034625
21
258.913049
0
LINE
8
Layer 1
10
66.034625
20
258.913049
11
66.214277
21
258.010821
0
LINE
8
Layer 1
10
66.214277
20
258.010821
11
66.028804
21
257.092718
0
LINE
8
Layer 1
10
66.028804
20
257.092718
11
65.523186
21
256.343948
0
LINE
8
Layer 1
10
65.523186
20
256.343948
11
64.773093
21
255.838595
0
LINE
8
Layer 1
10
64.773093
20
255.838595
11
63.854990
21
255.650741
0
LINE
8
Layer 1
10
63.854990
20
255.650741
11
62.936623
21
255.838595
0
LINE
8
Layer 1
10
62.936623
20
255.838595
11
62.186530
21
256.343948
0
LINE
8
Layer 1
10
62.186530
20
256.343948
11
61.680912
21
257.092718
0
LINE
8
Layer 1
10
61.680912
20
257.092718
11
61.495704
21
258.010821
0
LINE
8
Layer 1
10
61.495704
20
258.010821
11
61.680912
21
258.928924
0
LINE
8
Layer 1
10
61.680912
20
258.928924
11
62.186530
21
259.677694
0
LINE
8
Layer 1
10
62.186530
20
259.677694
11
62.936623
21
260.185693
0
LINE
8
Layer 1
10
62.936623
20
260.185693
11
63.854990
21
260.370901
0
LINE
8
Layer 1
10
63.854990
20
260.370901
11
63.854990
21
260.370901
0
LINE
8
Layer 1
10
127.753902
20
273.020615
11
128.332015
21
272.904198
0
LINE
8
Layer 1
10
128.332015
20
272.904198
11
128.821759
21
272.578761
0
LINE
8
Layer 1
10
128.821759
20
272.578761
11
129.149048
21
272.086637
0
LINE
8
Layer 1
10
129.149048
20
272.086637
11
129.264141
21
271.509846
0
LINE
8
Layer 1
10
129.264141
20
271.509846
11
129.145344
21
270.922471
0
LINE
8
Layer 1
10
129.145344
20
270.922471
11
128.821759
21
270.440930
0
LINE
8
Layer 1
10
128.821759
20
270.440930
11
128.341805
21
270.118139
0
LINE
8
Layer 1
10
128.341805
20
270.118139
11
127.753902
21
269.999077
0
LINE
8
Layer 1
10
127.753902
20
269.999077
11
127.166263
21
270.118139
0
LINE
8
Layer 1
10
127.166263
20
270.118139
11
126.686309
21
270.440930
0
LINE
8
Layer 1
10
126.686309
20
270.440930
11
126.362724
21
270.922471
0
LINE
8
Layer 1
10
126.362724
20
270.922471
11
126.243926
21
271.509846
0
LINE
8
Layer 1
10
126.243926
20
271.509846
11
126.362724
21
272.097220
0
LINE
8
Layer 1
10
126.362724
20
272.097220
11
126.686309
21
272.578761
0
LINE
8
Layer 1
10
126.686309
20
272.578761
11
127.166263
21
272.901552
0
LINE
8
Layer 1
10
127.166263
20
272.901552
11
127.753902
21
273.020615
0
LINE
8
Layer 1
10
127.753902
20
273.020615
11
127.753902
21
273.020615
0
LINE
8
Layer 1
10
58.154550
20
273.020615
11
58.732399
21
272.904198
0
LINE
8
Layer 1
10
58.732399
20
272.904198
11
59.222142
21
272.578761
0
LINE
8
Layer 1
10
59.222142
20
272.578761
11
59.549431
21
272.086637
0
LINE
8
Layer 1
10
59.549431
20
272.086637
11
59.664525
21
271.509846
0
LINE
8
Layer 1
10
59.664525
20
271.509846
11
59.545727
21
270.922471
0
LINE
8
Layer 1
10
59.545727
20
270.922471
11
59.222142
21
270.440930
0
LINE
8
Layer 1
10
59.222142
20
270.440930
11
58.742188
21
270.118139
0
LINE
8
Layer 1
10
58.742188
20
270.118139
11
58.154285
21
269.999077
0
LINE
8
Layer 1
10
58.154285
20
269.999077
11
57.566646
21
270.118139
0
LINE
8
Layer 1
10
57.566646
20
270.118139
11
57.086693
21
270.440930
0
LINE
8
Layer 1
10
57.086693
20
270.440930
11
56.763108
21
270.922471
0
LINE
8
Layer 1
10
56.763108
20
270.922471
11
56.644310
21
271.509846
0
LINE
8
Layer 1
10
56.644310
20
271.509846
11
56.763108
21
272.097220
0
LINE
8
Layer 1
10
56.763108
20
272.097220
11
57.086693
21
272.578761
0
LINE
8
Layer 1
10
57.086693
20
272.578761
11
57.566646
21
272.901552
0
LINE
8
Layer 1
10
57.566646
20
272.901552
11
58.154550
21
273.020615
0
LINE
8
Layer 1
10
58.154550
20
273.020615
11
58.154550
21
273.020615
0
LINE
8
Layer 1
10
127.753902
20
322.420642
11
128.332015
21
322.304225
0
LINE
8
Layer 1
10
128.332015
20
322.304225
11
128.821759
21
321.976143
0
LINE
8
Layer 1
10
128.821759
20
321.976143
11
129.149048
21
321.486664
0
LINE
8
Layer 1
10
129.149048
20
321.486664
11
129.264141
21
320.909873
0
LINE
8
Layer 1
10
129.264141
20
320.909873
11
129.145344
21
320.322499
0
LINE
8
Layer 1
10
129.145344
20
320.322499
11
128.821759
21
319.840958
0
LINE
8
Layer 1
10
128.821759
20
319.840958
11
128.341805
21
319.518166
0
LINE
8
Layer 1
10
128.341805
20
319.518166
11
127.753902
21
319.399104
0
LINE
8
Layer 1
10
127.753902
20
319.399104
11
127.166263
21
319.518166
0
LINE
8
Layer 1
10
127.166263
20
319.518166
11
126.686309
21
319.840958
0
LINE
8
Layer 1
10
126.686309
20
319.840958
11
126.362724
21
320.322499
0
LINE
8
Layer 1
10
126.362724
20
320.322499
11
126.243926
21
320.909873
0
LINE
8
Layer 1
10
126.243926
20
320.909873
11
126.362724
21
321.497247
0
LINE
8
Layer 1
10
126.362724
20
321.497247
11
126.686309
21
321.976143
0
LINE
8
Layer 1
10
126.686309
20
321.976143
11
127.166263
21
322.301580
0
LINE
8
Layer 1
10
127.166263
20
322.301580
11
127.753902
21
322.420642
0
LINE
8
Layer 1
10
127.753902
20
322.420642
11
127.753902
21
322.420642
0
LINE
8
Layer 1
10
58.154550
20
322.420642
11
58.732399
21
322.304225
0
LINE
8
Layer 1
10
58.732399
20
322.304225
11
59.222142
21
321.976143
0
LINE
8
Layer 1
10
59.222142
20
321.976143
11
59.549431
21
321.486664
0
LINE
8
Layer 1
10
59.549431
20
321.486664
11
59.664525
21
320.909873
0
LINE
8
Layer 1
10
59.664525
20
320.909873
11
59.545727
21
320.322499
0
LINE
8
Layer 1
10
59.545727
20
320.322499
11
59.222142
21
319.840958
0
LINE
8
Layer 1
10
59.222142
20
319.840958
11
58.742188
21
319.518166
0
LINE
8
Layer 1
10
58.742188
20
319.518166
11
58.154285
21
319.399104
0
LINE
8
Layer 1
10
58.154285
20
319.399104
11
57.566646
21
319.518166
0
LINE
8
Layer 1
10
57.566646
20
319.518166
11
57.086693
21
319.840958
0
LINE
8
Layer 1
10
57.086693
20
319.840958
11
56.763108
21
320.322499
0
LINE
8
Layer 1
10
56.763108
20
320.322499
11
56.644310
21
320.909873
0
LINE
8
Layer 1
10
56.644310
20
320.909873
11
56.763108
21
321.497247
0
LINE
8
Layer 1
10
56.763108
20
321.497247
11
57.086693
21
321.976143
0
LINE
8
Layer 1
10
57.086693
20
321.976143
11
57.566646
21
322.301580
0
LINE
8
Layer 1
10
57.566646
20
322.301580
11
58.154550
21
322.420642
0
LINE
8
Layer 1
10
58.154550
20
322.420642
11
58.154550
21
322.420642
0
LINE
8
Layer 1
10
45.441601
20
318.835542
11
46.015482
21
318.721772
0
LINE
8
Layer 1
10
46.015482
20
318.721772
11
46.502314
21
318.396335
0
LINE
8
Layer 1
10
46.502314
20
318.396335
11
46.827487
21
317.909502
0
LINE
8
Layer 1
10
46.827487
20
317.909502
11
46.941522
21
317.335357
0
LINE
8
Layer 1
10
46.941522
20
317.335357
11
46.823783
21
316.750628
0
LINE
8
Layer 1
10
46.823783
20
316.750628
11
46.502314
21
316.274379
0
LINE
8
Layer 1
10
46.502314
20
316.274379
11
46.025271
21
315.951588
0
LINE
8
Layer 1
10
46.025271
20
315.951588
11
45.441601
21
315.835171
0
LINE
8
Layer 1
10
45.441601
20
315.835171
11
44.857666
21
315.951588
0
LINE
8
Layer 1
10
44.857666
20
315.951588
11
44.380888
21
316.274379
0
LINE
8
Layer 1
10
44.380888
20
316.274379
11
44.059419
21
316.750628
0
LINE
8
Layer 1
10
44.059419
20
316.750628
11
43.941415
21
317.335357
0
LINE
8
Layer 1
10
43.941415
20
317.335357
11
44.059419
21
317.917439
0
LINE
8
Layer 1
10
44.059419
20
317.917439
11
44.380888
21
318.396335
0
LINE
8
Layer 1
10
44.380888
20
318.396335
11
44.857666
21
318.716480
0
LINE
8
Layer 1
10
44.857666
20
318.716480
11
45.441601
21
318.835542
0
LINE
8
Layer 1
10
45.441601
20
318.835542
11
45.441601
21
318.835542
0
LINE
8
Layer 1
10
137.440814
20
318.835542
11
138.014959
21
318.721772
0
LINE
8
Layer 1
10
138.014959
20
318.721772
11
138.501528
21
318.396335
0
LINE
8
Layer 1
10
138.501528
20
318.396335
11
138.826700
21
317.909502
0
LINE
8
Layer 1
10
138.826700
20
317.909502
11
138.941000
21
317.335357
0
LINE
8
Layer 1
10
138.941000
20
317.335357
11
138.822996
21
316.750628
0
LINE
8
Layer 1
10
138.822996
20
316.750628
11
138.501528
21
316.274379
0
LINE
8
Layer 1
10
138.501528
20
316.274379
11
138.024749
21
315.951588
0
LINE
8
Layer 1
10
138.024749
20
315.951588
11
137.440814
21
315.835171
0
LINE
8
Layer 1
10
137.440814
20
315.835171
11
136.857144
21
315.951588
0
LINE
8
Layer 1
10
136.857144
20
315.951588
11
136.380101
21
316.274379
0
LINE
8
Layer 1
10
136.380101
20
316.274379
11
136.058897
21
316.750628
0
LINE
8
Layer 1
10
136.058897
20
316.750628
11
135.940893
21
317.335357
0
LINE
8
Layer 1
10
135.940893
20
317.335357
11
136.058897
21
317.917439
0
LINE
8
Layer 1
10
136.058897
20
317.917439
11
136.380366
21
318.396335
0
LINE
8
Layer 1
10
136.380366
20
318.396335
11
136.857144
21
318.716480
0
LINE
8
Layer 1
10
136.857144
20
318.716480
11
137.440814
21
318.835542
0
LINE
8
Layer 1
10
137.440814
20
318.835542
11
137.440814
21
318.835542
0
LINE
8
Layer 1
10
137.440814
20
177.835293
11
138.014959
21
177.721258
0
LINE
8
Layer 1
10
138.014959
20
177.721258
11
138.501528
21
177.396085
0
LINE
8
Layer 1
10
138.501528
20
177.396085
11
138.826700
21
176.909517
0
LINE
8
Layer 1
10
138.826700
20
176.909517
11
138.941000
21
176.335372
0
LINE
8
Layer 1
10
138.941000
20
176.335372
11
138.688059
21
175.501935
0
LINE
8
Layer 1
10
138.688059
20
175.501935
11
138.014959
21
174.949486
0
LINE
8
Layer 1
10
138.014959
20
174.949486
11
137.148186
21
174.864290
0
LINE
8
Layer 1
10
137.148186
20
174.864290
11
136.380366
21
175.274659
0
LINE
8
Layer 1
10
136.380366
20
175.274659
11
135.969733
21
176.042743
0
LINE
8
Layer 1
10
135.969733
20
176.042743
11
136.055193
21
176.909517
0
LINE
8
Layer 1
10
136.055193
20
176.909517
11
136.607642
21
177.582616
0
LINE
8
Layer 1
10
136.607642
20
177.582616
11
137.440814
21
177.835293
0
LINE
8
Layer 1
10
137.440814
20
177.835293
11
137.440814
21
177.835293
0
LINE
8
Layer 1
10
192.546839
20
213.521190
11
193.120719
21
213.407419
0
LINE
8
Layer 1
10
193.120719
20
213.407419
11
193.607287
21
213.081982
0
LINE
8
Layer 1
10
193.607287
20
213.081982
11
193.932460
21
212.595149
0
LINE
8
Layer 1
10
193.932460
20
212.595149
11
194.046760
21
212.021004
0
LINE
8
Layer 1
10
194.046760
20
212.021004
11
193.793818
21
211.187568
0
LINE
8
Layer 1
10
193.793818
20
211.187568
11
193.120719
21
210.634589
0
LINE
8
Layer 1
10
193.120719
20
210.634589
11
192.253945
21
210.549922
0
LINE
8
Layer 1
10
192.253945
20
210.549922
11
191.486125
21
210.960026
0
LINE
8
Layer 1
10
191.486125
20
210.960026
11
191.075493
21
211.729963
0
LINE
8
Layer 1
10
191.075493
20
211.729963
11
191.160953
21
212.595149
0
LINE
8
Layer 1
10
191.160953
20
212.595149
11
191.713402
21
213.267190
0
LINE
8
Layer 1
10
191.713402
20
213.267190
11
192.546839
21
213.521190
0
LINE
8
Layer 1
10
192.546839
20
213.521190
11
192.546839
21
213.521190
0
LINE
8
Layer 1
10
219.778515
20
213.521190
11
220.352660
21
213.407419
0
LINE
8
Layer 1
10
220.352660
20
213.407419
11
220.839228
21
213.081982
0
LINE
8
Layer 1
10
220.839228
20
213.081982
11
221.164401
21
212.595149
0
LINE
8
Layer 1
10
221.164401
20
212.595149
11
221.278700
21
212.021004
0
LINE
8
Layer 1
10
221.278700
20
212.021004
11
221.160696
21
211.436276
0
LINE
8
Layer 1
10
221.160696
20
211.436276
11
220.839228
21
210.960026
0
LINE
8
Layer 1
10
220.839228
20
210.960026
11
220.362449
21
210.639881
0
LINE
8
Layer 1
10
220.362449
20
210.639881
11
219.778515
21
210.520818
0
LINE
8
Layer 1
10
219.778515
20
210.520818
11
219.194580
21
210.639881
0
LINE
8
Layer 1
10
219.194580
20
210.639881
11
218.717802
21
210.960026
0
LINE
8
Layer 1
10
218.717802
20
210.960026
11
218.396333
21
211.436276
0
LINE
8
Layer 1
10
218.396333
20
211.436276
11
218.278594
21
212.021004
0
LINE
8
Layer 1
10
218.278594
20
212.021004
11
218.396333
21
212.605732
0
LINE
8
Layer 1
10
218.396333
20
212.605732
11
218.717802
21
213.081982
0
LINE
8
Layer 1
10
218.717802
20
213.081982
11
219.194580
21
213.404773
0
LINE
8
Layer 1
10
219.194580
20
213.404773
11
219.778515
21
213.521190
0
LINE
8
Layer 1
10
219.778515
20
213.521190
11
219.778515
21
213.521190
0
LINE
8
Layer 1
10
45.441601
20
177.835293
11
46.015482
21
177.721258
0
LINE
8
Layer 1
10
46.015482
20
177.721258
11
46.502314
21
177.396085
0
LINE
8
Layer 1
10
46.502314
20
177.396085
11
46.827487
21
176.909517
0
LINE
8
Layer 1
10
46.827487
20
176.909517
11
46.941522
21
176.335372
0
LINE
8
Layer 1
10
46.941522
20
176.335372
11
46.688845
21
175.501935
0
LINE
8
Layer 1
10
46.688845
20
175.501935
11
46.015482
21
174.949486
0
LINE
8
Layer 1
10
46.015482
20
174.949486
11
45.148972
21
174.864290
0
LINE
8
Layer 1
10
45.148972
20
174.864290
11
44.380888
21
175.274659
0
LINE
8
Layer 1
10
44.380888
20
175.274659
11
43.970255
21
176.042743
0
LINE
8
Layer 1
10
43.970255
20
176.042743
11
44.055715
21
176.909517
0
LINE
8
Layer 1
10
44.055715
20
176.909517
11
44.608165
21
177.582616
0
LINE
8
Layer 1
10
44.608165
20
177.582616
11
45.441601
21
177.835293
0
LINE
8
Layer 1
10
45.441601
20
177.835293
11
45.441601
21
177.835293
0
LINE
8
Layer 1
10
16.441452
20
333.334691
11
16.441452
21
153.335436
0
LINE
8
Layer 1
10
16.441452
20
153.335436
11
166.440699
21
153.335436
0
LINE
8
Layer 1
10
166.440699
20
153.335436
11
166.440699
21
333.334691
0
LINE
8
Layer 1
10
166.440699
20
333.334691
11
16.441452
21
333.334691
0
LINE
8
Layer 1
10
160.440750
20
211.335734
11
160.440750
21
191.335376
0
LINE
8
Layer 1
10
160.440750
20
191.335376
11
163.440857
21
191.335376
0
LINE
8
Layer 1
10
163.440857
20
191.335376
11
163.440857
21
211.335734
0
LINE
8
Layer 1
10
163.440857
20
211.335734
11
160.440750
21
211.335734
0
LINE
8
Layer 1
10
19.441559
20
211.335734
11
19.441559
21
191.335376
0
LINE
8
Layer 1
10
19.441559
20
191.335376
11
22.441665
21
191.335376
0
LINE
8
Layer 1
10
22.441665
20
191.335376
11
22.441665
21
211.335734
0
LINE
8
Layer 1
10
22.441665
20
211.335734
11
19.441559
21
211.335734
0
LINE
8
Layer 1
10
160.440750
20
295.335280
11
160.440750
21
275.335716
0
LINE
8
Layer 1
10
160.440750
20
275.335716
11
163.440857
21
275.335716
0
LINE
8
Layer 1
10
163.440857
20
275.335716
11
163.440857
21
295.335280
0
LINE
8
Layer 1
10
163.440857
20
295.335280
11
160.440750
21
295.335280
0
LINE
8
Layer 1
10
19.441559
20
295.335280
11
19.441559
21
275.335716
0
LINE
8
Layer 1
10
19.441559
20
275.335716
11
22.441665
21
275.335716
0
LINE
8
Layer 1
10
22.441665
20
275.335716
11
22.441665
21
295.335280
0
LINE
8
Layer 1
10
22.441665
20
295.335280
11
19.441559
21
295.335280
0
LINE
8
Layer 1
10
115.941329
20
159.335385
11
115.941329
21
156.335543
0
LINE
8
Layer 1
10
115.941329
20
156.335543
11
135.940893
21
156.335543
0
LINE
8
Layer 1
10
135.940893
20
156.335543
11
135.940893
21
159.335385
0
LINE
8
Layer 1
10
135.940893
20
159.335385
11
115.941329
21
159.335385
0
LINE
8
Layer 1
10
46.941522
20
330.334319
11
46.941522
21
327.333948
0
LINE
8
Layer 1
10
46.941522
20
327.333948
11
66.941351
21
327.333948
0
LINE
8
Layer 1
10
66.941351
20
327.333948
11
66.941351
21
330.334319
0
LINE
8
Layer 1
10
66.941351
20
330.334319
11
46.941522
21
330.334319
0
LINE
8
Layer 1
10
115.941329
20
330.334319
11
115.941329
21
327.333948
0
LINE
8
Layer 1
10
115.941329
20
327.333948
11
135.940893
21
327.333948
0
LINE
8
Layer 1
10
135.940893
20
327.333948
11
135.940893
21
330.334319
0
LINE
8
Layer 1
10
135.940893
20
330.334319
11
115.941329
21
330.334319
0
LINE
8
Layer 1
10
46.941522
20
159.335385
11
46.941522
21
156.335543
0
LINE
8
Layer 1
10
46.941522
20
156.335543
11
66.941351
21
156.335543
0
LINE
8
Layer 1
10
66.941351
20
156.335543
11
66.941351
21
159.335385
0
LINE
8
Layer 1
10
66.941351
20
159.335385
11
46.941522
21
159.335385
0
LINE
8
Layer 1
10
91.441208
20
329.834258
11
91.824059
21
329.757529
0
LINE
8
Layer 1
10
91.824059
20
329.757529
11
92.148438
21
329.540570
0
LINE
8
Layer 1
10
92.148438
20
329.540570
11
92.365132
21
329.217779
0
LINE
8
Layer 1
10
92.365132
20
329.217779
11
92.441331
21
328.834134
0
LINE
8
Layer 1
10
92.441331
20
328.834134
11
92.272792
21
328.278510
0
LINE
8
Layer 1
10
92.272792
20
328.278510
11
91.824059
21
327.910739
0
LINE
8
Layer 1
10
91.824059
20
327.910739
11
91.246210
21
327.852531
0
LINE
8
Layer 1
10
91.246210
20
327.852531
11
90.734242
21
328.127697
0
LINE
8
Layer 1
10
90.734242
20
328.127697
11
90.460663
21
328.638342
0
LINE
8
Layer 1
10
90.460663
20
328.638342
11
90.517548
21
329.217779
0
LINE
8
Layer 1
10
90.517548
20
329.217779
11
90.885848
21
329.664924
0
LINE
8
Layer 1
10
90.885848
20
329.664924
11
91.441208
21
329.834258
0
LINE
8
Layer 1
10
91.441208
20
329.834258
11
91.441208
21
329.834258
0
LINE
8
Layer 1
10
161.940936
20
244.334526
11
162.323523
21
244.257797
0
LINE
8
Layer 1
10
162.323523
20
244.257797
11
162.647901
21
244.043484
0
LINE
8
Layer 1
10
162.647901
20
244.043484
11
162.864595
21
243.718047
0
LINE
8
Layer 1
10
162.864595
20
243.718047
11
162.940795
21
243.334402
0
LINE
8
Layer 1
10
162.940795
20
243.334402
11
162.772255
21
242.778778
0
LINE
8
Layer 1
10
162.772255
20
242.778778
11
162.323523
21
242.411007
0
LINE
8
Layer 1
10
162.323523
20
242.411007
11
161.745673
21
242.355445
0
LINE
8
Layer 1
10
161.745673
20
242.355445
11
161.233705
21
242.627965
0
LINE
8
Layer 1
10
161.233705
20
242.627965
11
160.960126
21
243.141256
0
LINE
8
Layer 1
10
160.960126
20
243.141256
11
161.017012
21
243.718047
0
LINE
8
Layer 1
10
161.017012
20
243.718047
11
161.385311
21
244.167838
0
LINE
8
Layer 1
10
161.385311
20
244.167838
11
161.940936
21
244.334526
0
LINE
8
Layer 1
10
161.940936
20
244.334526
11
161.940936
21
244.334526
0
LINE
8
Layer 1
10
91.441208
20
158.835588
11
91.824059
21
158.759388
0
LINE
8
Layer 1
10
91.824059
20
158.759388
11
92.148438
21
158.542694
0
LINE
8
Layer 1
10
92.148438
20
158.542694
11
92.365132
21
158.218051
0
LINE
8
Layer 1
10
92.365132
20
158.218051
11
92.441331
21
157.835464
0
LINE
8
Layer 1
10
92.441331
20
157.835464
11
92.272792
21
157.279840
0
LINE
8
Layer 1
10
92.272792
20
157.279840
11
91.824059
21
156.911540
0
LINE
8
Layer 1
10
91.824059
20
156.911540
11
91.246210
21
156.854655
0
LINE
8
Layer 1
10
91.246210
20
156.854655
11
90.734242
21
157.128234
0
LINE
8
Layer 1
10
90.734242
20
157.128234
11
90.460663
21
157.640466
0
LINE
8
Layer 1
10
90.460663
20
157.640466
11
90.517548
21
158.218051
0
LINE
8
Layer 1
10
90.517548
20
158.218051
11
90.885848
21
158.667048
0
LINE
8
Layer 1
10
90.885848
20
158.667048
11
91.441208
21
158.835588
0
LINE
8
Layer 1
10
91.441208
20
158.835588
11
91.441208
21
158.835588
0
LINE
8
Layer 1
10
20.941480
20
244.334526
11
21.324331
21
244.257797
0
LINE
8
Layer 1
10
21.324331
20
244.257797
11
21.648710
21
244.043484
0
LINE
8
Layer 1
10
21.648710
20
244.043484
11
21.865404
21
243.718047
0
LINE
8
Layer 1
10
21.865404
20
243.718047
11
21.941604
21
243.334402
0
LINE
8
Layer 1
10
21.941604
20
243.334402
11
21.863022
21
242.945465
0
LINE
8
Layer 1
10
21.863022
20
242.945465
11
21.648710
21
242.627965
0
LINE
8
Layer 1
10
21.648710
20
242.627965
11
21.330946
21
242.413653
0
LINE
8
Layer 1
10
21.330946
20
242.413653
11
20.941480
21
242.334278
0
LINE
8
Layer 1
10
20.941480
20
242.334278
11
20.552278
21
242.413653
0
LINE
8
Layer 1
10
20.552278
20
242.413653
11
20.234514
21
242.627965
0
LINE
8
Layer 1
10
20.234514
20
242.627965
11
20.020202
21
242.945465
0
LINE
8
Layer 1
10
20.020202
20
242.945465
11
19.941621
21
243.334402
0
LINE
8
Layer 1
10
19.941621
20
243.334402
11
20.020202
21
243.723339
0
LINE
8
Layer 1
10
20.020202
20
243.723339
11
20.234514
21
244.043484
0
LINE
8
Layer 1
10
20.234514
20
244.043484
11
20.552278
21
244.257797
0
LINE
8
Layer 1
10
20.552278
20
244.257797
11
20.941480
21
244.334526
0
LINE
8
Layer 1
10
20.941480
20
244.334526
11
20.941480
21
244.334526
0
LINE
8
Layer 1
10
195.474979
20
159.335385
11
195.474979
21
156.335543
0
LINE
8
Layer 1
10
195.474979
20
156.335543
11
215.474808
21
156.335543
0
LINE
8
Layer 1
10
215.474808
20
156.335543
11
215.474808
21
159.335385
0
LINE
8
Layer 1
10
215.474808
20
159.335385
11
195.474979
21
159.335385
0
LINE
8
Layer 1
10
195.474979
20
330.334319
11
195.474979
21
327.333948
0
LINE
8
Layer 1
10
195.474979
20
327.333948
11
215.474808
21
327.333948
0
LINE
8
Layer 1
10
215.474808
20
327.333948
11
215.474808
21
330.334319
0
LINE
8
Layer 1
10
215.474808
20
330.334319
11
195.474979
21
330.334319
0
LINE
8
Layer 1
10
177.974930
20
330.334319
11
177.974930
21
333.334691
0
LINE
8
Layer 1
10
177.974930
20
333.334691
11
232.973534
21
333.334691
0
LINE
8
Layer 1
10
232.973534
20
333.334691
11
232.973534
21
330.334319
0
LINE
8
Layer 1
10
177.974930
20
330.334319
11
177.974930
21
296.835466
0
LINE
8
Layer 1
10
232.973534
20
296.835466
11
232.973534
21
330.334319
0
LINE
8
Layer 1
10
177.974930
20
333.334691
11
177.974930
21
295.335280
0
LINE
8
Layer 1
10
177.974930
20
295.335280
11
174.974823
21
295.335280
0
LINE
8
Layer 1
10
174.974823
20
295.335280
11
174.974823
21
275.335716
0
LINE
8
Layer 1
10
174.974823
20
275.335716
11
177.974930
21
275.335716
0
LINE
8
Layer 1
10
177.974930
20
275.335716
11
177.974930
21
244.334526
0
LINE
8
Layer 1
10
177.974930
20
244.334526
11
180.975037
21
244.334526
0
LINE
8
Layer 1
10
180.975037
20
244.334526
11
180.975037
21
245.334649
0
LINE
8
Layer 1
10
180.975037
20
245.334649
11
182.975019
21
245.334649
0
LINE
8
Layer 1
10
182.975019
20
245.334649
11
182.975019
21
241.334155
0
LINE
8
Layer 1
10
182.975019
20
241.334155
11
180.975037
21
241.334155
0
LINE
8
Layer 1
10
180.975037
20
241.334155
11
180.975037
21
242.334278
0
LINE
8
Layer 1
10
180.975037
20
242.334278
11
177.974930
21
242.334278
0
LINE
8
Layer 1
10
177.974930
20
242.334278
11
177.974930
21
211.335734
0
LINE
8
Layer 1
10
177.974930
20
211.335734
11
174.974823
21
211.335734
0
LINE
8
Layer 1
10
174.974823
20
211.335734
11
174.974823
21
191.335376
0
LINE
8
Layer 1
10
174.974823
20
191.335376
11
177.974930
21
191.335376
0
LINE
8
Layer 1
10
177.974930
20
191.335376
11
177.974930
21
153.335436
0
LINE
8
Layer 1
10
177.974930
20
153.335436
11
232.973534
21
153.335436
0
LINE
8
Layer 1
10
232.973534
20
153.335436
11
232.973534
21
189.835455
0
LINE
8
Layer 1
10
232.973534
20
189.835455
11
232.973534
21
191.335376
0
LINE
8
Layer 1
10
232.973534
20
191.335376
11
235.973905
21
191.335376
0
LINE
8
Layer 1
10
235.973905
20
191.335376
11
235.973905
21
211.335734
0
LINE
8
Layer 1
10
235.973905
20
211.335734
11
232.973534
21
211.335734
0
LINE
8
Layer 1
10
232.973534
20
211.335734
11
232.973534
21
242.334278
0
LINE
8
Layer 1
10
232.973534
20
242.334278
11
229.974750
21
242.334278
0
LINE
8
Layer 1
10
229.974750
20
242.334278
11
229.974750
21
241.334155
0
LINE
8
Layer 1
10
229.974750
20
241.334155
11
227.974767
21
241.334155
0
LINE
8
Layer 1
10
227.974767
20
241.334155
11
227.974767
21
245.334649
0
LINE
8
Layer 1
10
227.974767
20
245.334649
11
229.974750
21
245.334649
0
LINE
8
Layer 1
10
229.974750
20
245.334649
11
229.974750
21
244.334526
0
LINE
8
Layer 1
10
229.974750
20
244.334526
11
232.973534
21
244.334526
0
LINE
8
Layer 1
10
232.973534
20
244.334526
11
232.973534
21
269.491077
0
LINE
8
Layer 1
10
232.973534
20
269.491077
11
232.973534
21
275.335716
0
LINE
8
Layer 1
10
232.973534
20
275.335716
11
235.973905
21
275.335716
0
LINE
8
Layer 1
10
235.973905
20
275.335716
11
235.973905
21
295.335280
0
LINE
8
Layer 1
10
235.973905
20
295.335280
11
232.973534
21
295.335280
0
LINE
8
Layer 1
10
232.973534
20
295.335280
11
232.973534
21
333.334691
0
LINE
8
Layer 1
10
232.973534
20
333.334691
11
177.974930
21
333.334691
0
LINE
8
Layer 1
10
427.883628
20
159.335649
11
427.883628
21
156.335543
0
LINE
8
Layer 1
10
427.883628
20
156.335543
11
447.883457
21
156.335543
0
LINE
8
Layer 1
10
447.883457
20
156.335543
11
447.883457
21
159.335649
0
LINE
8
Layer 1
10
447.883457
20
159.335649
11
427.883628
21
159.335649
0
LINE
8
Layer 1
10
427.883628
20
330.334319
11
427.883628
21
327.333948
0
LINE
8
Layer 1
10
427.883628
20
327.333948
11
447.883457
21
327.333948
0
LINE
8
Layer 1
10
447.883457
20
327.333948
11
447.883457
21
330.334319
0
LINE
8
Layer 1
10
447.883457
20
330.334319
11
427.883628
21
330.334319
0
LINE
8
Layer 1
10
410.384108
20
330.334319
11
410.384108
21
333.334691
0
LINE
8
Layer 1
10
410.384108
20
333.334691
11
465.382976
21
333.334691
0
LINE
8
Layer 1
10
465.382976
20
333.334691
11
465.382976
21
330.334319
0
LINE
8
Layer 1
10
410.384108
20
330.334319
11
410.384108
21
296.835466
0
LINE
8
Layer 1
10
465.382976
20
296.835466
11
465.382976
21
330.334319
0
LINE
8
Layer 1
10
410.384108
20
333.334691
11
410.384108
21
295.335280
0
LINE
8
Layer 1
10
410.384108
20
295.335280
11
407.383737
21
295.335280
0
LINE
8
Layer 1
10
407.383737
20
295.335280
11
407.383737
21
275.335716
0
LINE
8
Layer 1
10
407.383737
20
275.335716
11
410.384108
21
275.335716
0
LINE
8
Layer 1
10
410.384108
20
275.335716
11
410.384108
21
244.334526
0
LINE
8
Layer 1
10
410.384108
20
244.334526
11
413.384479
21
244.334526
0
LINE
8
Layer 1
10
413.384479
20
244.334526
11
413.384479
21
245.334649
0
LINE
8
Layer 1
10
413.384479
20
245.334649
11
415.384727
21
245.334649
0
LINE
8
Layer 1
10
415.384727
20
245.334649
11
415.384727
21
241.334155
0
LINE
8
Layer 1
10
415.384727
20
241.334155
11
413.384479
21
241.334155
0
LINE
8
Layer 1
10
413.384479
20
241.334155
11
413.384479
21
242.334278
0
LINE
8
Layer 1
10
413.384479
20
242.334278
11
410.384108
21
242.334278
0
LINE
8
Layer 1
10
410.384108
20
242.334278
11
410.384108
21
211.335734
0
LINE
8
Layer 1
10
410.384108
20
211.335734
11
407.383737
21
211.335734
0
LINE
8
Layer 1
10
407.383737
20
211.335734
11
407.383737
21
191.335376
0
LINE
8
Layer 1
10
407.383737
20
191.335376
11
410.384108
21
191.335376
0
LINE
8
Layer 1
10
410.384108
20
191.335376
11
410.384108
21
153.335701
0
LINE
8
Layer 1
10
410.384108
20
153.335701
11
465.382976
21
153.335701
0
LINE
8
Layer 1
10
465.382976
20
153.335701
11
465.385622
21
189.835455
0
LINE
8
Layer 1
10
465.385622
20
189.835455
11
465.382976
21
191.335376
0
LINE
8
Layer 1
10
465.382976
20
191.335376
11
468.383347
21
191.335376
0
LINE
8
Layer 1
10
468.383347
20
191.335376
11
468.383347
21
211.335734
0
LINE
8
Layer 1
10
468.383347
20
211.335734
11
465.382976
21
211.335734
0
LINE
8
Layer 1
10
465.382976
20
211.335734
11
465.382976
21
242.334278
0
LINE
8
Layer 1
10
465.382976
20
242.334278
11
462.385251
21
242.334278
0
LINE
8
Layer 1
10
462.385251
20
242.334278
11
462.385251
21
241.334155
0
LINE
8
Layer 1
10
462.385251
20
241.334155
11
460.385003
21
241.334155
0
LINE
8
Layer 1
10
460.385003
20
241.334155
11
460.385003
21
245.334649
0
LINE
8
Layer 1
10
460.385003
20
245.334649
11
462.385251
21
245.334649
0
LINE
8
Layer 1
10
462.385251
20
245.334649
11
462.385251
21
244.334526
0
LINE
8
Layer 1
10
462.385251
20
244.334526
11
465.382976
21
244.334526
0
LINE
8
Layer 1
10
465.382976
20
244.334526
11
465.385622
21
269.491077
0
LINE
8
Layer 1
10
465.385622
20
269.491077
11
465.382976
21
275.335716
0
LINE
8
Layer 1
10
465.382976
20
275.335716
11
468.383347
21
275.335716
0
LINE
8
Layer 1
10
468.383347
20
275.335716
11
468.383347
21
295.335280
0
LINE
8
Layer 1
10
468.383347
20
295.335280
11
465.382976
21
295.335280
0
LINE
8
Layer 1
10
465.382976
20
295.335280
11
465.382976
21
333.334691
0
LINE
8
Layer 1
10
465.382976
20
333.334691
11
410.384108
21
333.334691
0
LINE
8
Layer 1
10
437.884865
20
288.834476
11
439.223655
21
288.567247
0
LINE
8
Layer 1
10
439.223655
20
288.567247
11
440.358716
21
287.810540
0
LINE
8
Layer 1
10
440.358716
20
287.810540
11
441.118069
21
286.675479
0
LINE
8
Layer 1
10
441.118069
20
286.675479
11
441.385298
21
285.334043
0
LINE
8
Layer 1
10
441.385298
20
285.334043
11
441.231840
21
284.307461
0
LINE
8
Layer 1
10
441.231840
20
284.307461
11
440.795278
21
283.389358
0
LINE
8
Layer 1
10
440.795278
20
283.389358
11
440.112654
21
282.635296
0
LINE
8
Layer 1
10
440.112654
20
282.635296
11
439.223655
21
282.100839
0
LINE
8
Layer 1
10
439.223655
20
282.100839
11
438.215594
21
281.849485
0
LINE
8
Layer 1
10
438.215594
20
281.849485
11
437.202241
21
281.902401
0
LINE
8
Layer 1
10
437.202241
20
281.902401
11
436.244450
21
282.243713
0
LINE
8
Layer 1
10
436.244450
20
282.243713
11
435.408368
21
282.860192
0
LINE
8
Layer 1
10
435.408368
20
282.860192
11
434.791890
21
283.693628
0
LINE
8
Layer 1
10
434.791890
20
283.693628
11
434.450578
21
284.651419
0
LINE
8
Layer 1
10
434.450578
20
284.651419
11
434.400307
21
285.667417
0
LINE
8
Layer 1
10
434.400307
20
285.667417
11
434.651661
21
286.675479
0
LINE
8
Layer 1
10
434.651661
20
286.675479
11
435.186118
21
287.564478
0
LINE
8
Layer 1
10
435.186118
20
287.564478
11
435.940180
21
288.244456
0
LINE
8
Layer 1
10
435.940180
20
288.244456
11
436.858283
21
288.681018
0
LINE
8
Layer 1
10
436.858283
20
288.681018
11
437.884865
21
288.834476
0
LINE
8
Layer 1
10
437.884865
20
288.834476
11
437.884865
21
288.834476
0
LINE
8
Layer 1
10
276.486589
20
300.335899
11
277.060734
21
300.219482
0
LINE
8
Layer 1
10
277.060734
20
300.219482
11
277.547567
21
299.896691
0
LINE
8
Layer 1
10
277.547567
20
299.896691
11
277.870358
21
299.409858
0
LINE
8
Layer 1
10
277.870358
20
299.409858
11
277.986775
21
298.835713
0
LINE
8
Layer 1
10
277.986775
20
298.835713
11
277.867712
21
298.250985
0
LINE
8
Layer 1
10
277.867712
20
298.250985
11
277.547567
21
297.774736
0
LINE
8
Layer 1
10
277.547567
20
297.774736
11
277.068672
21
297.451944
0
LINE
8
Layer 1
10
277.068672
20
297.451944
11
276.486589
21
297.335528
0
LINE
8
Layer 1
10
276.486589
20
297.335528
11
275.901861
21
297.451944
0
LINE
8
Layer 1
10
275.901861
20
297.451944
11
275.425611
21
297.774736
0
LINE
8
Layer 1
10
275.425611
20
297.774736
11
275.102820
21
298.250985
0
LINE
8
Layer 1
10
275.102820
20
298.250985
11
274.986404
21
298.835713
0
LINE
8
Layer 1
10
274.986404
20
298.835713
11
275.102820
21
299.417796
0
LINE
8
Layer 1
10
275.102820
20
299.417796
11
275.425611
21
299.896691
0
LINE
8
Layer 1
10
275.425611
20
299.896691
11
275.901861
21
300.216837
0
LINE
8
Layer 1
10
275.901861
20
300.216837
11
276.486589
21
300.335899
0
LINE
8
Layer 1
10
276.486589
20
300.335899
11
276.486589
21
300.335899
0
LINE
8
Layer 1
10
369.484868
20
300.335899
11
370.059013
21
300.219482
0
LINE
8
Layer 1
10
370.059013
20
300.219482
11
370.545846
21
299.896691
0
LINE
8
Layer 1
10
370.545846
20
299.896691
11
370.871283
21
299.409858
0
LINE
8
Layer 1
10
370.871283
20
299.409858
11
370.985053
21
298.835713
0
LINE
8
Layer 1
10
370.985053
20
298.835713
11
370.868637
21
298.250985
0
LINE
8
Layer 1
10
370.868637
20
298.250985
11
370.545846
21
297.774736
0
LINE
8
Layer 1
10
370.545846
20
297.774736
11
370.069596
21
297.451944
0
LINE
8
Layer 1
10
370.069596
20
297.451944
11
369.484868
21
297.335528
0
LINE
8
Layer 1
10
369.484868
20
297.335528
11
368.902785
21
297.451944
0
LINE
8
Layer 1
10
368.902785
20
297.451944
11
368.423890
21
297.774736
0
LINE
8
Layer 1
10
368.423890
20
297.774736
11
368.103745
21
298.250985
0
LINE
8
Layer 1
10
368.103745
20
298.250985
11
367.984682
21
298.835713
0
LINE
8
Layer 1
10
367.984682
20
298.835713
11
368.103745
21
299.417796
0
LINE
8
Layer 1
10
368.103745
20
299.417796
11
368.423890
21
299.896691
0
LINE
8
Layer 1
10
368.423890
20
299.896691
11
368.902785
21
300.216837
0
LINE
8
Layer 1
10
368.902785
20
300.216837
11
369.484868
21
300.335899
0
LINE
8
Layer 1
10
369.484868
20
300.335899
11
369.484868
21
300.335899
0
LINE
8
Layer 1
10
369.484868
20
245.334649
11
370.059013
21
245.220879
0
LINE
8
Layer 1
10
370.059013
20
245.220879
11
370.545846
21
244.895442
0
LINE
8
Layer 1
10
370.545846
20
244.895442
11
370.871283
21
244.408609
0
LINE
8
Layer 1
10
370.871283
20
244.408609
11
370.985053
21
243.834464
0
LINE
8
Layer 1
10
370.985053
20
243.834464
11
370.733700
21
243.001027
0
LINE
8
Layer 1
10
370.733700
20
243.001027
11
370.059013
21
242.450695
0
LINE
8
Layer 1
10
370.059013
20
242.450695
11
369.193827
21
242.363382
0
LINE
8
Layer 1
10
369.193827
20
242.363382
11
368.423890
21
242.773486
0
LINE
8
Layer 1
10
368.423890
20
242.773486
11
368.013786
21
243.543423
0
LINE
8
Layer 1
10
368.013786
20
243.543423
11
368.098453
21
244.408609
0
LINE
8
Layer 1
10
368.098453
20
244.408609
11
368.651431
21
245.083296
0
LINE
8
Layer 1
10
368.651431
20
245.083296
11
369.484868
21
245.334649
0
LINE
8
Layer 1
10
369.484868
20
245.334649
11
369.484868
21
245.334649
0
LINE
8
Layer 1
10
276.486589
20
245.334649
11
277.068672
21
245.218233
0
LINE
8
Layer 1
10
277.068672
20
245.218233
11
277.547567
21
244.895442
0
LINE
8
Layer 1
10
277.547567
20
244.895442
11
277.867712
21
244.419192
0
LINE
8
Layer 1
10
277.867712
20
244.419192
11
277.986775
21
243.834464
0
LINE
8
Layer 1
10
277.986775
20
243.834464
11
277.732775
21
243.001027
0
LINE
8
Layer 1
10
277.732775
20
243.001027
11
277.060734
21
242.450695
0
LINE
8
Layer 1
10
277.060734
20
242.450695
11
276.192902
21
242.363382
0
LINE
8
Layer 1
10
276.192902
20
242.363382
11
275.425611
21
242.773486
0
LINE
8
Layer 1
10
275.425611
20
242.773486
11
275.015508
21
243.543423
0
LINE
8
Layer 1
10
275.015508
20
243.543423
11
275.100174
21
244.408609
0
LINE
8
Layer 1
10
275.100174
20
244.408609
11
275.653153
21
245.083296
0
LINE
8
Layer 1
10
275.653153
20
245.083296
11
276.486589
21
245.334649
0
LINE
8
Layer 1
10
276.486589
20
245.334649
11
276.486589
21
245.334649
0
LINE
8
Layer 1
10
273.986280
20
291.334785
11
273.986280
21
251.335392
0
LINE
8
Layer 1
10
273.986280
20
251.335392
11
371.985177
21
251.335392
0
LINE
8
Layer 1
10
371.985177
20
251.335392
11
371.985177
21
291.334785
0
LINE
8
Layer 1
10
371.985177
20
291.334785
11
273.986280
21
291.334785
0
LINE
8
Layer 1
10
22.278418
20
402.332645
11
46.778274
21
402.332645
0
LINE
8
Layer 1
10
90.278101
20
402.332645
11
90.278101
21
399.334920
0
LINE
8
Layer 1
10
90.278101
20
399.334920
11
89.278242
21
399.334920
0
LINE
8
Layer 1
10
89.278242
20
399.334920
11
89.278242
21
397.334673
0
LINE
8
Layer 1
10
89.278242
20
397.334673
11
93.278207
21
397.334673
0
LINE
8
Layer 1
10
93.278207
20
397.334673
11
93.278207
21
399.334920
0
LINE
8
Layer 1
10
93.278207
20
399.334920
11
92.278348
21
399.334920
0
LINE
8
Layer 1
10
93.278207
20
399.334920
11
92.278348
21
399.334920
0
LINE
8
Layer 1
10
92.278348
20
399.334920
11
92.278348
21
402.332645
0
LINE
8
Layer 1
10
87.952681
20
347.333830
11
90.278101
21
347.333830
0
LINE
8
Layer 1
10
90.278101
20
347.333830
11
90.278101
21
350.334201
0
LINE
8
Layer 1
10
90.278101
20
350.334201
11
89.278242
21
350.334201
0
LINE
8
Layer 1
10
89.278242
20
350.334201
11
89.278242
21
352.334449
0
LINE
8
Layer 1
10
89.278242
20
352.334449
11
93.278207
21
352.334449
0
LINE
8
Layer 1
10
93.278207
20
352.334449
11
93.278207
21
350.334201
0
LINE
8
Layer 1
10
93.278207
20
350.334201
11
92.278348
21
350.334201
0
LINE
8
Layer 1
10
92.278348
20
350.334201
11
92.278348
21
347.333830
0
LINE
8
Layer 1
10
90.278101
20
402.332645
11
66.778368
21
402.332645
0
LINE
8
Layer 1
10
66.778368
20
402.332645
11
66.778368
21
405.333017
0
LINE
8
Layer 1
10
66.778368
20
405.333017
11
46.778274
21
405.333017
0
LINE
8
Layer 1
10
46.778274
20
405.333017
11
46.778274
21
402.332645
0
LINE
8
Layer 1
10
46.778274
20
402.332645
11
22.278418
21
402.332645
0
LINE
8
Layer 1
10
22.278418
20
402.332645
11
22.278418
21
384.833126
0
LINE
8
Layer 1
10
22.278418
20
384.833126
11
19.278576
21
384.833126
0
LINE
8
Layer 1
10
19.278576
20
384.833126
11
19.278576
21
364.833323
0
LINE
8
Layer 1
10
19.278576
20
364.833323
11
22.278418
21
364.833323
0
LINE
8
Layer 1
10
22.278418
20
364.833323
11
22.278418
21
347.333830
0
LINE
8
Layer 1
10
22.278418
20
347.333830
11
46.778274
21
347.333830
0
LINE
8
Layer 1
10
46.778274
20
347.333830
11
46.778274
21
344.333459
0
LINE
8
Layer 1
10
46.778274
20
344.333459
11
66.778368
21
344.333459
0
LINE
8
Layer 1
10
66.778368
20
344.333459
11
66.778368
21
347.333830
0
LINE
8
Layer 1
10
66.778368
20
347.333830
11
90.278101
21
347.333830
0
LINE
8
Layer 1
10
92.278348
20
347.333830
11
115.778081
21
347.333830
0
LINE
8
Layer 1
10
115.778081
20
347.333830
11
115.778081
21
344.333459
0
LINE
8
Layer 1
10
115.778081
20
344.333459
11
135.777910
21
344.333459
0
LINE
8
Layer 1
10
135.777910
20
344.333459
11
135.777910
21
347.333830
0
LINE
8
Layer 1
10
135.777910
20
347.333830
11
160.277767
21
347.333830
0
LINE
8
Layer 1
10
160.277767
20
347.333830
11
160.277767
21
364.833323
0
LINE
8
Layer 1
10
160.277767
20
364.833323
11
163.277609
21
364.833323
0
LINE
8
Layer 1
10
163.277609
20
364.833323
11
163.277609
21
384.833126
0
LINE
8
Layer 1
10
163.277609
20
384.833126
11
160.277767
21
384.833126
0
LINE
8
Layer 1
10
160.277767
20
384.833126
11
160.277767
21
402.332645
0
LINE
8
Layer 1
10
160.277767
20
402.332645
11
135.777910
21
402.332645
0
LINE
8
Layer 1
10
135.777910
20
402.332645
11
135.777910
21
405.333017
0
LINE
8
Layer 1
10
135.777910
20
405.333017
11
115.778081
21
405.333017
0
LINE
8
Layer 1
10
115.778081
20
405.333017
11
115.778081
21
402.332645
0
LINE
8
Layer 1
10
115.778081
20
402.332645
11
92.278348
21
402.332645
0
LINE
8
Layer 1
10
51.280154
20
363.737950
11
51.280154
21
354.334670
0
LINE
8
Layer 1
10
51.280154
20
354.334670
11
131.275766
21
354.334670
0
LINE
8
Layer 1
10
131.275766
20
354.334670
11
131.275766
21
363.737950
0
LINE
8
Layer 1
10
131.275766
20
363.737950
11
51.280154
21
363.737950
0
LINE
8
Layer 1
10
34.528346
20
391.582638
11
35.676372
21
391.355097
0
LINE
8
Layer 1
10
35.676372
20
391.355097
11
36.649773
21
390.704223
0
LINE
8
Layer 1
10
36.649773
20
390.704223
11
37.300118
21
389.730557
0
LINE
8
Layer 1
10
37.300118
20
389.730557
11
37.528453
21
388.584913
0
LINE
8
Layer 1
10
37.528453
20
388.584913
11
37.396690
21
387.703851
0
LINE
8
Layer 1
10
37.396690
20
387.703851
11
37.022835
21
386.918040
0
LINE
8
Layer 1
10
37.022835
20
386.918040
11
36.438635
21
386.269812
0
LINE
8
Layer 1
10
36.438635
20
386.269812
11
35.676372
21
385.812083
0
LINE
8
Layer 1
10
35.676372
20
385.812083
11
34.813302
21
385.597771
0
LINE
8
Layer 1
10
34.813302
20
385.597771
11
33.943088
21
385.640104
0
LINE
8
Layer 1
10
33.943088
20
385.640104
11
33.122352
21
385.933791
0
LINE
8
Layer 1
10
33.122352
20
385.933791
11
32.407184
21
386.462957
0
LINE
8
Layer 1
10
32.407184
20
386.462957
11
31.878283
21
387.177331
0
LINE
8
Layer 1
10
31.878283
20
387.177331
11
31.586183
21
387.997539
0
LINE
8
Layer 1
10
31.586183
20
387.997539
11
31.541733
21
388.868017
0
LINE
8
Layer 1
10
31.541733
20
388.868017
11
31.756839
21
389.730557
0
LINE
8
Layer 1
10
31.756839
20
389.730557
11
32.215097
21
390.495202
0
LINE
8
Layer 1
10
32.215097
20
390.495202
11
32.861738
21
391.077285
0
LINE
8
Layer 1
10
32.861738
20
391.077285
11
33.648872
21
391.452992
0
LINE
8
Layer 1
10
33.648872
20
391.452992
11
34.528346
21
391.582638
0
LINE
8
Layer 1
10
34.528346
20
391.582638
11
34.528346
21
391.582638
0
LINE
8
Layer1017
10
22.441665
20
141.883490
11
46.941522
21
141.883490
0
LINE
8
Layer1017
10
90.441349
20
141.883490
11
90.441349
21
138.883384
0
LINE
8
Layer1017
10
90.441349
20
138.883384
11
89.441225
21
138.883384
0
LINE
8
Layer1017
10
89.441225
20
138.883384
11
89.441225
21
136.883401
0
LINE
8
Layer1017
10
89.441225
20
136.883401
11
93.441191
21
136.883401
0
LINE
8
Layer1017
10
93.441191
20
136.883401
11
93.441191
21
138.883384
0
LINE
8
Layer1017
10
93.441191
20
138.883384
11
92.441331
21
138.883384
0
LINE
8
Layer1017
10
93.441191
20
138.883384
11
92.441331
21
138.883384
0
LINE
8
Layer1017
10
92.441331
20
138.883384
11
92.441331
21
141.883490
0
LINE
8
Layer1017
10
88.115664
20
86.884357
11
90.441349
21
86.884357
0
LINE
8
Layer1017
10
90.441349
20
86.884357
11
90.441349
21
89.884729
0
LINE
8
Layer1017
10
90.441349
20
89.884729
11
89.441225
21
89.884729
0
LINE
8
Layer1017
10
89.441225
20
89.884729
11
89.441225
21
91.884976
0
LINE
8
Layer1017
10
89.441225
20
91.884976
11
93.441191
21
91.884976
0
LINE
8
Layer1017
10
93.441191
20
91.884976
11
93.441191
21
89.884729
0
LINE
8
Layer1017
10
93.441191
20
89.884729
11
92.441331
21
89.884729
0
LINE
8
Layer1017
10
92.441331
20
89.884729
11
92.441331
21
86.884357
0
LINE
8
Layer1017
10
90.441349
20
141.883490
11
66.941351
21
141.883490
0
LINE
8
Layer1017
10
66.941351
20
141.883490
11
66.941351
21
144.883332
0
LINE
8
Layer1017
10
66.941351
20
144.883332
11
46.941522
21
144.883332
0
LINE
8
Layer1017
10
46.941522
20
144.883332
11
46.941522
21
141.883490
0
LINE
8
Layer1017
10
46.941522
20
141.883490
11
22.441665
21
141.883490
0
LINE
8
Layer1017
10
22.441665
20
141.883490
11
22.441665
21
124.383706
0
LINE
8
Layer1017
10
22.441665
20
124.383706
11
19.441559
21
124.383706
0
LINE
8
Layer1017
10
19.441559
20
124.383706
11
19.441559
21
104.383877
0
LINE
8
Layer1017
10
19.441559
20
104.383877
11
22.441665
21
104.383877
0
LINE
8
Layer1017
10
22.441665
20
104.383877
11
22.441665
21
86.884357
0
LINE
8
Layer1017
10
22.441665
20
86.884357
11
46.941522
21
86.884357
0
LINE
8
Layer1017
10
46.941522
20
86.884357
11
46.941522
21
83.883986
0
LINE
8
Layer1017
10
46.941522
20
83.883986
11
66.941351
21
83.883986
0
LINE
8
Layer1017
10
66.941351
20
83.883986
11
66.941351
21
86.884357
0
LINE
8
Layer1017
10
66.941351
20
86.884357
11
90.441349
21
86.884357
0
LINE
8
Layer1017
10
92.441331
20
86.884357
11
115.941329
21
86.884357
0
LINE
8
Layer1017
10
115.941329
20
86.884357
11
115.941329
21
83.883986
0
LINE
8
Layer1017
10
115.941329
20
83.883986
11
135.940893
21
83.883986
0
LINE
8
Layer1017
10
135.940893
20
83.883986
11
135.940893
21
86.884357
0
LINE
8
Layer1017
10
135.940893
20
86.884357
11
160.440750
21
86.884357
0
LINE
8
Layer1017
10
160.440750
20
86.884357
11
160.440750
21
104.383877
0
LINE
8
Layer1017
10
160.440750
20
104.383877
11
163.440857
21
104.383877
0
LINE
8
Layer1017
10
163.440857
20
104.383877
11
163.440857
21
124.383706
0
LINE
8
Layer1017
10
163.440857
20
124.383706
11
160.440750
21
124.383706
0
LINE
8
Layer1017
10
160.440750
20
124.383706
11
160.440750
21
141.883490
0
LINE
8
Layer1017
10
160.440750
20
141.883490
11
135.940893
21
141.883490
0
LINE
8
Layer1017
10
135.940893
20
141.883490
11
135.940893
21
144.883332
0
LINE
8
Layer1017
10
135.940893
20
144.883332
11
115.941329
21
144.883332
0
LINE
8
Layer1017
10
115.941329
20
144.883332
11
115.941329
21
141.883490
0
LINE
8
Layer1017
10
115.941329
20
141.883490
11
92.441331
21
141.883490
0
LINE
8
Layer1017
10
91.441208
20
111.133654
11
92.876306
21
110.848169
0
LINE
8
Layer1017
10
92.876306
20
110.848169
11
94.092859
21
110.035105
0
LINE
8
Layer1017
10
94.092859
20
110.035105
11
94.905922
21
108.818553
0
LINE
8
Layer1017
10
94.905922
20
108.818553
11
95.191407
21
107.383455
0
LINE
8
Layer1017
10
95.191407
20
107.383455
11
95.026572
21
106.283848
0
LINE
8
Layer1017
10
95.026572
20
106.283848
11
94.559318
21
105.299334
0
LINE
8
Layer1017
10
94.559318
20
105.299334
11
93.829334
21
104.492356
0
LINE
8
Layer1017
10
93.829334
20
104.492356
11
92.876306
21
103.918211
0
LINE
8
Layer1017
10
92.876306
20
103.918211
11
91.797601
21
103.650982
0
LINE
8
Layer1017
10
91.797601
20
103.650982
11
90.709636
21
103.706545
0
LINE
8
Layer1017
10
90.709636
20
103.706545
11
89.683583
21
104.071669
0
LINE
8
Layer1017
10
89.683583
20
104.071669
11
88.789557
21
104.733127
0
LINE
8
Layer1017
10
88.789557
20
104.733127
11
88.128629
21
105.624771
0
LINE
8
Layer1017
10
88.128629
20
105.624771
11
87.763504
21
106.651883
0
LINE
8
Layer1017
10
87.763504
20
106.651883
11
87.708206
21
107.739583
0
LINE
8
Layer1017
10
87.708206
20
107.739583
11
87.976758
21
108.818553
0
LINE
8
Layer1017
10
87.976758
20
108.818553
11
88.549580
21
109.771581
0
LINE
8
Layer1017
10
88.549580
20
109.771581
11
89.357881
21
110.501565
0
LINE
8
Layer1017
10
89.357881
20
110.501565
11
90.341865
21
110.968819
0
LINE
8
Layer1017
10
90.341865
20
110.968819
11
91.441208
21
111.133654
0
LINE
8
Layer1017
10
91.441208
20
111.133654
11
91.441208
21
111.133654
0
LINE
8
Layer1017
10
91.399404
20
127.141984
11
92.819156
21
126.859674
0
LINE
8
Layer1017
10
92.819156
20
126.859674
11
94.022479
21
126.055606
0
LINE
8
Layer1017
10
94.022479
20
126.055606
11
94.826547
21
124.852283
0
LINE
8
Layer1017
10
94.826547
20
124.852283
11
95.108857
21
123.432795
0
LINE
8
Layer1017
10
95.108857
20
123.432795
11
95.033451
21
122.685083
0
LINE
8
Layer1017
10
95.033451
20
122.685083
11
94.817551
21
121.988701
0
LINE
8
Layer1017
10
94.817551
20
121.988701
11
94.022479
21
120.809719
0
LINE
8
Layer1017
10
94.022479
20
120.809719
11
92.843498
21
120.014647
0
LINE
8
Layer1017
10
92.843498
20
120.014647
11
92.147115
21
119.798747
0
LINE
8
Layer1017
10
92.147115
20
119.798747
11
91.399404
21
119.723341
0
LINE
8
Layer1017
10
91.399404
20
119.723341
11
90.651957
21
119.798747
0
LINE
8
Layer1017
10
90.651957
20
119.798747
11
89.955574
21
120.014912
0
LINE
8
Layer1017
10
89.955574
20
120.014912
11
88.776592
21
120.809719
0
LINE
8
Layer1017
10
88.776592
20
120.809719
11
87.981520
21
121.988701
0
LINE
8
Layer1017
10
87.981520
20
121.988701
11
87.765356
21
122.685083
0
LINE
8
Layer1017
10
87.765356
20
122.685083
11
87.690215
21
123.432795
0
LINE
8
Layer1017
10
87.690215
20
123.432795
11
87.765621
21
124.180242
0
LINE
8
Layer1017
10
87.765621
20
124.180242
11
87.981520
21
124.876624
0
LINE
8
Layer1017
10
87.981520
20
124.876624
11
88.776592
21
126.055606
0
LINE
8
Layer1017
10
88.776592
20
126.055606
11
89.955574
21
126.850678
0
LINE
8
Layer1017
10
89.955574
20
126.850678
11
90.651957
21
127.066842
0
LINE
8
Layer1017
10
90.651957
20
127.066842
11
91.399404
21
127.141984
0
LINE
8
Layer1017
10
91.399404
20
127.141984
11
91.399404
21
127.141984
0
LINE
8
Layer1018
10
311.980399
20
235.256683
11
313.006981
21
235.153496
0
LINE
8
Layer1018
10
313.006981
20
235.153496
11
313.962125
21
234.857163
0
LINE
8
Layer1018
10
313.962125
20
234.857163
11
314.827312
21
234.386205
0
LINE
8
Layer1018
10
314.827312
20
234.386205
11
315.581373
21
233.764435
0
LINE
8
Layer1018
10
315.581373
20
233.764435
11
316.203143
21
233.010373
0
LINE
8
Layer1018
10
316.203143
20
233.010373
11
316.671455
21
232.145187
0
LINE
8
Layer1018
10
316.671455
20
232.145187
11
316.967788
21
231.190042
0
LINE
8
Layer1018
10
316.967788
20
231.190042
11
317.073621
21
230.163460
0
LINE
8
Layer1018
10
317.073621
20
230.163460
11
316.848726
21
228.671212
0
LINE
8
Layer1018
10
316.848726
20
228.671212
11
316.213727
21
227.335068
0
LINE
8
Layer1018
10
316.213727
20
227.335068
11
315.221540
21
226.237049
0
LINE
8
Layer1018
10
315.221540
20
226.237049
11
313.927729
21
225.459175
0
LINE
8
Layer1018
10
313.927729
20
225.459175
11
312.464586
21
225.094050
0
LINE
8
Layer1018
10
312.464586
20
225.094050
11
310.985567
21
225.170779
0
LINE
8
Layer1018
10
310.985567
20
225.170779
11
309.593860
21
225.665549
0
LINE
8
Layer1018
10
309.593860
20
225.665549
11
308.379424
21
226.562486
0
LINE
8
Layer1018
10
308.379424
20
226.562486
11
307.482488
21
227.776922
0
LINE
8
Layer1018
10
307.482488
20
227.776922
11
306.985072
21
229.171274
0
LINE
8
Layer1018
10
306.985072
20
229.171274
11
306.910988
21
230.647647
0
LINE
8
Layer1018
10
306.910988
20
230.647647
11
307.276113
21
232.113437
0
LINE
8
Layer1018
10
307.276113
20
232.113437
11
308.053987
21
233.407248
0
LINE
8
Layer1018
10
308.053987
20
233.407248
11
309.152006
21
234.399434
0
LINE
8
Layer1018
10
309.152006
20
234.399434
11
310.488151
21
235.031787
0
LINE
8
Layer1018
10
310.488151
20
235.031787
11
311.980399
21
235.256683
0
LINE
8
Layer1018
10
311.980399
20
235.256683
11
311.980399
21
235.256683
0
LINE
8
Layer1018
10
289.980322
20
235.256683
11
291.006904
21
235.153496
0
LINE
8
Layer1018
10
291.006904
20
235.153496
11
291.962049
21
234.857163
0
LINE
8
Layer1018
10
291.962049
20
234.857163
11
292.827235
21
234.386205
0
LINE
8
Layer1018
10
292.827235
20
234.386205
11
293.581297
21
233.764435
0
LINE
8
Layer1018
10
293.581297
20
233.764435
11
294.203067
21
233.010373
0
LINE
8
Layer1018
10
294.203067
20
233.010373
11
294.671379
21
232.145187
0
LINE
8
Layer1018
10
294.671379
20
232.145187
11
294.967712
21
231.190042
0
LINE
8
Layer1018
10
294.967712
20
231.190042
11
295.070899
21
230.163460
0
LINE
8
Layer1018
10
295.070899
20
230.163460
11
294.848649
21
228.671212
0
LINE
8
Layer1018
10
294.848649
20
228.671212
11
294.213650
21
227.335068
0
LINE
8
Layer1018
10
294.213650
20
227.335068
11
293.221464
21
226.237049
0
LINE
8
Layer1018
10
293.221464
20
226.237049
11
291.927653
21
225.459175
0
LINE
8
Layer1018
10
291.927653
20
225.459175
11
290.464509
21
225.094050
0
LINE
8
Layer1018
10
290.464509
20
225.094050
11
288.985490
21
225.170779
0
LINE
8
Layer1018
10
288.985490
20
225.170779
11
287.593784
21
225.665549
0
LINE
8
Layer1018
10
287.593784
20
225.665549
11
286.379348
21
226.562486
0
LINE
8
Layer1018
10
286.379348
20
226.562486
11
285.482411
21
227.776922
0
LINE
8
Layer1018
10
285.482411
20
227.776922
11
284.984995
21
229.171274
0
LINE
8
Layer1018
10
284.984995
20
229.171274
11
284.910912
21
230.647647
0
LINE
8
Layer1018
10
284.910912
20
230.647647
11
285.276036
21
232.113437
0
LINE
8
Layer1018
10
285.276036
20
232.113437
11
286.053910
21
233.407248
0
LINE
8
Layer1018
10
286.053910
20
233.407248
11
287.151930
21
234.399434
0
LINE
8
Layer1018
10
287.151930
20
234.399434
11
288.488074
21
235.031787
0
LINE
8
Layer1018
10
288.488074
20
235.031787
11
289.980322
21
235.256683
0
LINE
8
Layer1018
10
289.980322
20
235.256683
11
289.980322
21
235.256683
0
LINE
8
Layer1018
10
333.977829
20
235.256683
11
334.977953
21
235.158787
0
LINE
8
Layer1018
10
334.977953
20
235.158787
11
335.927806
21
234.867746
0
LINE
8
Layer1018
10
335.927806
20
234.867746
11
336.803576
21
234.402080
0
LINE
8
Layer1018
10
336.803576
20
234.402080
11
337.578804
21
233.764435
0
LINE
8
Layer1018
10
337.578804
20
233.764435
11
338.216449
21
232.989207
0
LINE
8
Layer1018
10
338.216449
20
232.989207
11
338.682115
21
232.113437
0
LINE
8
Layer1018
10
338.682115
20
232.113437
11
338.973156
21
231.163584
0
LINE
8
Layer1018
10
338.973156
20
231.163584
11
339.071052
21
230.163460
0
LINE
8
Layer1018
10
339.071052
20
230.163460
11
338.967865
21
229.139524
0
LINE
8
Layer1018
10
338.967865
20
229.139524
11
338.671532
21
228.181734
0
LINE
8
Layer1018
10
338.671532
20
228.181734
11
338.200574
21
227.316547
0
LINE
8
Layer1018
10
338.200574
20
227.316547
11
337.578804
21
226.562486
0
LINE
8
Layer1018
10
337.578804
20
226.562486
11
336.824742
21
225.940716
0
LINE
8
Layer1018
10
336.824742
20
225.940716
11
335.959556
21
225.472404
0
LINE
8
Layer1018
10
335.959556
20
225.472404
11
335.004411
21
225.176071
0
LINE
8
Layer1018
10
335.004411
20
225.176071
11
333.977829
21
225.072883
0
LINE
8
Layer1018
10
333.977829
20
225.072883
11
332.951247
21
225.176071
0
LINE
8
Layer1018
10
332.951247
20
225.176071
11
331.996103
21
225.472404
0
LINE
8
Layer1018
10
331.996103
20
225.472404
11
331.130916
21
225.940716
0
LINE
8
Layer1018
10
331.130916
20
225.940716
11
330.376855
21
226.562486
0
LINE
8
Layer1018
10
330.376855
20
226.562486
11
329.755085
21
227.316547
0
LINE
8
Layer1018
10
329.755085
20
227.316547
11
329.286773
21
228.181734
0
LINE
8
Layer1018
10
329.286773
20
228.181734
11
328.990440
21
229.139524
0
LINE
8
Layer1018
10
328.990440
20
229.139524
11
328.887252
21
230.163460
0
LINE
8
Layer1018
10
328.887252
20
230.163460
11
328.990440
21
231.190042
0
LINE
8
Layer1018
10
328.990440
20
231.190042
11
329.286773
21
232.147833
0
LINE
8
Layer1018
10
329.286773
20
232.147833
11
329.755085
21
233.010373
0
LINE
8
Layer1018
10
329.755085
20
233.010373
11
330.376855
21
233.764435
0
LINE
8
Layer1018
10
330.376855
20
233.764435
11
331.130916
21
234.386205
0
LINE
8
Layer1018
10
331.130916
20
234.386205
11
331.996103
21
234.857163
0
LINE
8
Layer1018
10
331.996103
20
234.857163
11
332.951247
21
235.153496
0
LINE
8
Layer1018
10
332.951247
20
235.153496
11
333.977829
21
235.256683
0
LINE
8
Layer1018
10
333.977829
20
235.256683
11
333.977829
21
235.256683
0
LINE
8
Layer1018
10
355.977906
20
235.256683
11
356.975384
21
235.158787
0
LINE
8
Layer1018
10
356.975384
20
235.158787
11
357.925237
21
234.867746
0
LINE
8
Layer1018
10
357.925237
20
234.867746
11
358.801006
21
234.402080
0
LINE
8
Layer1018
10
358.801006
20
234.402080
11
359.576234
21
233.764435
0
LINE
8
Layer1018
10
359.576234
20
233.764435
11
360.211234
21
232.989207
0
LINE
8
Layer1018
10
360.211234
20
232.989207
11
360.679546
21
232.113437
0
LINE
8
Layer1018
10
360.679546
20
232.113437
11
360.967941
21
231.163584
0
LINE
8
Layer1018
10
360.967941
20
231.163584
11
361.068483
21
230.163460
0
LINE
8
Layer1018
10
361.068483
20
230.163460
11
360.965295
21
229.136878
0
LINE
8
Layer1018
10
360.965295
20
229.136878
11
360.668962
21
228.181734
0
LINE
8
Layer1018
10
360.668962
20
228.181734
11
360.198005
21
227.316547
0
LINE
8
Layer1018
10
360.198005
20
227.316547
11
359.576234
21
226.562486
0
LINE
8
Layer1018
10
359.576234
20
226.562486
11
358.822173
21
225.940716
0
LINE
8
Layer1018
10
358.822173
20
225.940716
11
357.959632
21
225.472404
0
LINE
8
Layer1018
10
357.959632
20
225.472404
11
357.001842
21
225.176071
0
LINE
8
Layer1018
10
357.001842
20
225.176071
11
355.977906
21
225.072883
0
LINE
8
Layer1018
10
355.977906
20
225.072883
11
354.951324
21
225.176071
0
LINE
8
Layer1018
10
354.951324
20
225.176071
11
353.996179
21
225.472404
0
LINE
8
Layer1018
10
353.996179
20
225.472404
11
353.130993
21
225.940716
0
LINE
8
Layer1018
10
353.130993
20
225.940716
11
352.376931
21
226.562486
0
LINE
8
Layer1018
10
352.376931
20
226.562486
11
351.755161
21
227.316547
0
LINE
8
Layer1018
10
351.755161
20
227.316547
11
351.286849
21
228.181734
0
LINE
8
Layer1018
10
351.286849
20
228.181734
11
350.990516
21
229.136878
0
LINE
8
Layer1018
10
350.990516
20
229.136878
11
350.887329
21
230.163460
0
LINE
8
Layer1018
10
350.887329
20
230.163460
11
350.990516
21
231.190042
0
LINE
8
Layer1018
10
350.990516
20
231.190042
11
351.286849
21
232.145187
0
LINE
8
Layer1018
10
351.286849
20
232.145187
11
351.755161
21
233.010373
0
LINE
8
Layer1018
10
351.755161
20
233.010373
11
352.376931
21
233.764435
0
LINE
8
Layer1018
10
352.376931
20
233.764435
11
353.130993
21
234.386205
0
LINE
8
Layer1018
10
353.130993
20
234.386205
11
353.996179
21
234.857163
0
LINE
8
Layer1018
10
353.996179
20
234.857163
11
354.951324
21
235.153496
0
LINE
8
Layer1018
10
354.951324
20
235.153496
11
355.977906
21
235.256683
0
LINE
8
Layer1018
10
355.977906
20
235.256683
11
355.977906
21
235.256683
0
LINE
8
Layer1018
10
247.985973
20
333.334691
11
247.985973
21
153.335436
0
LINE
8
Layer1018
10
247.985973
20
153.335436
11
397.985749
21
153.335436
0
LINE
8
Layer1018
10
397.985749
20
153.335436
11
397.985749
21
333.334691
0
LINE
8
Layer1018
10
397.985749
20
333.334691
11
247.985973
21
333.334691
0
LINE
8
Layer1018
10
391.985006
20
211.335734
11
391.985006
21
191.335376
0
LINE
8
Layer1018
10
391.985006
20
191.335376
11
394.985377
21
191.335376
0
LINE
8
Layer1018
10
394.985377
20
191.335376
11
394.985377
21
211.335734
0
LINE
8
Layer1018
10
394.985377
20
211.335734
11
391.985006
21
211.335734
0
LINE
8
Layer1018
10
250.986344
20
211.335734
11
250.986344
21
191.335376
0
LINE
8
Layer1018
10
250.986344
20
191.335376
11
253.986715
21
191.335376
0
LINE
8
Layer1018
10
253.986715
20
191.335376
11
253.986715
21
211.335734
0
LINE
8
Layer1018
10
253.986715
20
211.335734
11
250.986344
21
211.335734
0
LINE
8
Layer1018
10
391.985006
20
295.335280
11
391.985006
21
275.335716
0
LINE
8
Layer1018
10
391.985006
20
275.335716
11
394.985377
21
275.335716
0
LINE
8
Layer1018
10
394.985377
20
275.335716
11
394.985377
21
295.335280
0
LINE
8
Layer1018
10
394.985377
20
295.335280
11
391.985006
21
295.335280
0
LINE
8
Layer1018
10
250.986344
20
295.335280
11
250.986344
21
275.335716
0
LINE
8
Layer1018
10
250.986344
20
275.335716
11
253.986715
21
275.335716
0
LINE
8
Layer1018
10
253.986715
20
275.335716
11
253.986715
21
295.335280
0
LINE
8
Layer1018
10
253.986715
20
295.335280
11
250.986344
21
295.335280
0
LINE
8
Layer1018
10
347.484791
20
159.335385
11
347.484791
21
156.335543
0
LINE
8
Layer1018
10
347.484791
20
156.335543
11
367.484620
21
156.335543
0
LINE
8
Layer1018
10
367.484620
20
156.335543
11
367.484620
21
159.335385
0
LINE
8
Layer1018
10
367.484620
20
159.335385
11
347.484791
21
159.335385
0
LINE
8
Layer1018
10
278.486837
20
330.334319
11
278.486837
21
327.333948
0
LINE
8
Layer1018
10
278.486837
20
327.333948
11
298.486666
21
327.333948
0
LINE
8
Layer1018
10
298.486666
20
327.333948
11
298.486666
21
330.334319
0
LINE
8
Layer1018
10
298.486666
20
330.334319
11
278.486837
21
330.334319
0
LINE
8
Layer1018
10
347.484791
20
330.334319
11
347.484791
21
327.333948
0
LINE
8
Layer1018
10
347.484791
20
327.333948
11
367.484620
21
327.333948
0
LINE
8
Layer1018
10
367.484620
20
327.333948
11
367.484620
21
330.334319
0
LINE
8
Layer1018
10
367.484620
20
330.334319
11
347.484791
21
330.334319
0
LINE
8
Layer1018
10
278.486837
20
159.335385
11
278.486837
21
156.335543
0
LINE
8
Layer1018
10
278.486837
20
156.335543
11
298.486666
21
156.335543
0
LINE
8
Layer1018
10
298.486666
20
156.335543
11
298.486666
21
159.335385
0
LINE
8
Layer1018
10
298.486666
20
159.335385
11
278.486837
21
159.335385
0
LINE
8
Layer1018
10
322.984406
20
329.834258
11
323.368051
21
329.757529
0
LINE
8
Layer1018
10
323.368051
20
329.757529
11
323.693488
21
329.540570
0
LINE
8
Layer1018
10
323.693488
20
329.540570
11
323.910446
21
329.217779
0
LINE
8
Layer1018
10
323.910446
20
329.217779
11
323.984529
21
328.834134
0
LINE
8
Layer1018
10
323.984529
20
328.834134
11
323.817842
21
328.278510
0
LINE
8
Layer1018
10
323.817842
20
328.278510
11
323.368051
21
327.910739
0
LINE
8
Layer1018
10
323.368051
20
327.910739
11
322.791260
21
327.852531
0
LINE
8
Layer1018
10
322.791260
20
327.852531
11
322.277969
21
328.127697
0
LINE
8
Layer1018
10
322.277969
20
328.127697
11
322.005448
21
328.638342
0
LINE
8
Layer1018
10
322.005448
20
328.638342
11
322.061011
21
329.217779
0
LINE
8
Layer1018
10
322.061011
20
329.217779
11
322.431427
21
329.664924
0
LINE
8
Layer1018
10
322.431427
20
329.664924
11
322.984406
21
329.834258
0
LINE
8
Layer1018
10
322.984406
20
329.834258
11
322.984406
21
329.834258
0
LINE
8
Layer1018
10
393.485192
20
244.334526
11
393.874129
21
244.257797
0
LINE
8
Layer1018
10
393.874129
20
244.257797
11
394.191628
21
244.043484
0
LINE
8
Layer1018
10
394.191628
20
244.043484
11
394.405941
21
243.723339
0
LINE
8
Layer1018
10
394.405941
20
243.723339
11
394.485316
21
243.334402
0
LINE
8
Layer1018
10
394.485316
20
243.334402
11
394.315982
21
242.778778
0
LINE
8
Layer1018
10
394.315982
20
242.778778
11
393.868837
21
242.411007
0
LINE
8
Layer1018
10
393.868837
20
242.411007
11
393.289400
21
242.355445
0
LINE
8
Layer1018
10
393.289400
20
242.355445
11
392.778755
21
242.627965
0
LINE
8
Layer1018
10
392.778755
20
242.627965
11
392.503589
21
243.141256
0
LINE
8
Layer1018
10
392.503589
20
243.141256
11
392.561797
21
243.718047
0
LINE
8
Layer1018
10
392.561797
20
243.718047
11
392.929567
21
244.167838
0
LINE
8
Layer1018
10
392.929567
20
244.167838
11
393.485192
21
244.334526
0
LINE
8
Layer1018
10
393.485192
20
244.334526
11
393.485192
21
244.334526
0
LINE
8
Layer1018
10
322.984406
20
158.835588
11
323.368051
21
158.759388
0
LINE
8
Layer1018
10
323.368051
20
158.759388
11
323.693488
21
158.542694
0
LINE
8
Layer1018
10
323.693488
20
158.542694
11
323.910446
21
158.218051
0
LINE
8
Layer1018
10
323.910446
20
158.218051
11
323.984529
21
157.835464
0
LINE
8
Layer1018
10
323.984529
20
157.835464
11
323.817842
21
157.279840
0
LINE
8
Layer1018
10
323.817842
20
157.279840
11
323.368051
21
156.911540
0
LINE
8
Layer1018
10
323.368051
20
156.911540
11
322.791260
21
156.854655
0
LINE
8
Layer1018
10
322.791260
20
156.854655
11
322.277969
21
157.128234
0
LINE
8
Layer1018
10
322.277969
20
157.128234
11
322.005448
21
157.640466
0
LINE
8
Layer1018
10
322.005448
20
157.640466
11
322.061011
21
158.218051
0
LINE
8
Layer1018
10
322.061011
20
158.218051
11
322.431427
21
158.667048
0
LINE
8
Layer1018
10
322.431427
20
158.667048
11
322.984406
21
158.835588
0
LINE
8
Layer1018
10
322.984406
20
158.835588
11
322.984406
21
158.835588
0
LINE
8
Layer1018
10
252.486530
20
244.334526
11
252.870175
21
244.257797
0
LINE
8
Layer1018
10
252.870175
20
244.257797
11
253.192966
21
244.043484
0
LINE
8
Layer1018
10
253.192966
20
244.043484
11
253.409924
21
243.718047
0
LINE
8
Layer1018
10
253.409924
20
243.718047
11
253.486654
21
243.334402
0
LINE
8
Layer1018
10
253.486654
20
243.334402
11
253.407279
21
242.945465
0
LINE
8
Layer1018
10
253.407279
20
242.945465
11
253.192966
21
242.627965
0
LINE
8
Layer1018
10
253.192966
20
242.627965
11
252.875467
21
242.413653
0
LINE
8
Layer1018
10
252.875467
20
242.413653
11
252.486530
21
242.334278
0
LINE
8
Layer1018
10
252.486530
20
242.334278
11
252.097593
21
242.413653
0
LINE
8
Layer1018
10
252.097593
20
242.413653
11
251.780093
21
242.627965
0
LINE
8
Layer1018
10
251.780093
20
242.627965
11
251.565781
21
242.945465
0
LINE
8
Layer1018
10
251.565781
20
242.945465
11
251.486406
21
243.334402
0
LINE
8
Layer1018
10
251.486406
20
243.334402
11
251.565781
21
243.723339
0
LINE
8
Layer1018
10
251.565781
20
243.723339
11
251.780093
21
244.043484
0
LINE
8
Layer1018
10
251.780093
20
244.043484
11
252.097593
21
244.257797
0
LINE
8
Layer1018
10
252.097593
20
244.257797
11
252.486530
21
244.334526
0
LINE
8
Layer1018
10
252.486530
20
244.334526
11
252.486530
21
244.334526
0
LINE
8
Layer1018
10
283.005914
20
320.761707
11
283.005914
21
306.979578
0
LINE
8
Layer1018
10
283.005914
20
306.979578
11
362.965543
21
306.979578
0
LINE
8
Layer1018
10
362.965543
20
306.979578
11
362.965543
21
320.761707
0
LINE
8
Layer1018
10
362.965543
20
320.761707
11
283.005914
21
320.761707
 0 
ENDSEC
 0 
EOF